<svg xmlns="http://www.w3.org/2000/svg" width="852.59" height="183" viewBox="0 0 852.59 183"><title>logo-bizency</title><path d="M3.4,146V16.6H78q26,0,39.5,8.7T131,51.2q0,11-5.4,17.3t-15.3,9.3A101.65,101.65,0,0,1,87,81.6l.8-1.4a158.67,158.67,0,0,1,18.5,1.4A50.94,50.94,0,0,1,121.6,86,25.59,25.59,0,0,1,132,94.9q3.8,5.7,3.8,14.9,0,12-6.4,19.9t-17.8,11.9A86.71,86.71,0,0,1,85.2,146ZM30,71.4H77q12.6,0,19.4-3.7T103.2,55q0-9-6.8-12.7t-18-3.7H30ZM30,124H82.4q12.6,0,19.4-4.1t6.8-13.1q0-6.6-4-9.6A21.12,21.12,0,0,0,94,93.5a134,134,0,0,0-14.2-.7H30Z" transform="translate(-3.4 -3)" fill="#f45103"/><path d="M185.8,3V25.8H155.6V3ZM157.6,46.6h26V146h-26Z" transform="translate(-3.4 -3)" fill="#f45103"/><path d="M309.4,66.4l-79,67.6-2.8-7.6h83.2V146H209V126.4l79-67.6,2.8,7.6H209V46.6H309.4Z" transform="translate(-3.4 -3)" fill="#f45103"/><path d="M422.6,113h25.2a35.92,35.92,0,0,1-8.5,18.2q-6.9,8-18.7,12.6t-28.8,4.6q-19,0-33.6-6.1t-22.8-17.7q-8.2-11.59-8.2-28t8-28.1a50.58,50.58,0,0,1,22.3-17.9q14.29-6.19,33.5-6.2,19.59,0,32.6,6.2a40.48,40.48,0,0,1,19.3,18.7q6.3,12.49,5.3,31.9H353.4a28.53,28.53,0,0,0,5.7,13.8,31.94,31.94,0,0,0,12.8,9.8q8.1,3.6,19.3,3.6,12.39,0,20.7-4.3T422.6,113ZM389.8,64.2q-14.4,0-23.4,6.3T354.8,86h67.6a21.17,21.17,0,0,0-9.5-15.9Q404.4,64.21,389.8,64.2Z" transform="translate(-3.4 -3)" fill="#fff"/><path d="M467.6,46.6h26V146h-26Zm72.2-2.2a57.58,57.58,0,0,1,17,2.4,37.47,37.47,0,0,1,13.6,7.4,33.49,33.49,0,0,1,9,12.7,47.57,47.57,0,0,1,3.2,18.3V146h-26V89.8q0-12.6-6.1-18.5t-19.9-5.9a43.11,43.11,0,0,0-18.8,4,40.25,40.25,0,0,0-13.6,10.1,24,24,0,0,0-6,12.7L492,82a39.92,39.92,0,0,1,4.6-13.6,45.95,45.95,0,0,1,24.2-20.8A53.13,53.13,0,0,1,539.8,44.4Z" transform="translate(-3.4 -3)" fill="#fff"/><path d="M724.2,106.8a40.81,40.81,0,0,1-8.3,22.4q-7.3,9.41-20.11,14.3t-30.39,4.9q-18.4,0-32.9-5.9t-22.8-17.4q-8.31-11.5-8.3-28.5T609.7,68a51.44,51.44,0,0,1,22.8-17.6q14.49-6,32.9-6,17.6,0,30.2,4.9t19.9,14.1A40.93,40.93,0,0,1,724,85.6H700.2A28.54,28.54,0,0,0,687.6,70q-9.21-5.59-22.2-5.6A48,48,0,0,0,646.5,68a31.4,31.4,0,0,0-13.6,10.7q-5.1,7.1-5.11,17.9,0,10.61,5,17.7a30.07,30.07,0,0,0,13.61,10.6,50,50,0,0,0,19,3.5q14,0,22.89-5.6a28,28,0,0,0,12.11-16Z" transform="translate(-3.4 -3)" fill="#fff"/><path d="M734.39,46.6H762L805,142l-22.4,4Zm121.6,0L787.19,186h-27l29.4-54.8,38.6-84.6Z" transform="translate(-3.4 -3)" fill="#fff"/></svg>